<svg width="21" height="27" viewBox="0 0 21 27" fill="none" xmlns="http://www.w3.org/2000/svg">
<path d="M17.3294 14.0732C17.3294 10.8671 19.9343 9.26411 20.1347 9.16392C18.6318 6.95975 16.2273 6.65918 15.4258 6.65918C13.422 6.4588 11.5184 7.86146 10.5165 7.86146C9.51456 7.86146 7.91153 6.65918 6.30849 6.75937C4.20451 6.75937 2.20072 8.06184 1.09863 9.96544C-1.20573 13.8728 0.497491 19.6838 2.70166 22.8899C3.80375 24.4929 5.10622 26.1962 6.70925 26.096C8.31229 25.9958 8.91343 25.0941 10.9172 25.0941C12.8208 25.0941 13.422 26.096 15.1252 26.096C16.8284 26.096 17.9305 24.4929 19.0326 22.9901C20.3351 21.1867 20.836 19.4835 20.836 19.3833C20.7358 19.1829 17.4296 17.8804 17.3294 14.0732Z" fill="#374B58"/>
<path d="M14.123 4.55602C15.0248 3.45393 15.6259 1.95109 15.4255 0.448242C14.123 0.548432 12.6202 1.34995 11.6183 2.35185C10.8168 3.25355 10.1155 4.85659 10.3158 6.25924C11.8187 6.45962 13.2213 5.65811 14.123 4.55602Z" fill="#374B58"/>
</svg>
