<svg width="44" height="45" viewBox="0 0 44 45" fill="none" xmlns="http://www.w3.org/2000/svg">
<rect y="0.827148" width="44" height="44" rx="22" fill="#F8FBFF"/>
<g clip-path="url(#clip0_1_37304)">
<path d="M32 22.8271C32 17.3043 27.5229 12.8271 22 12.8271C16.4771 12.8271 12 17.3043 12 22.8271C12 27.8184 15.6568 31.9555 20.4375 32.7057V25.7178H17.8984V22.8271H20.4375V20.624C20.4375 18.1178 21.9305 16.7334 24.2146 16.7334C25.3084 16.7334 26.4531 16.9287 26.4531 16.9287V19.3896H25.1922C23.95 19.3896 23.5625 20.1605 23.5625 20.9521V22.8271H26.3359L25.8926 25.7178H23.5625V32.7057C28.3432 31.9555 32 27.8184 32 22.8271Z" fill="#001928"/>
<path d="M25.8926 25.7178L26.3359 22.8271H23.5625V20.9521C23.5625 20.1613 23.95 19.3896 25.1922 19.3896H26.4531V16.9287C26.4531 16.9287 25.3088 16.7334 24.2146 16.7334C21.9305 16.7334 20.4375 18.1178 20.4375 20.624V22.8271H17.8984V25.7178H20.4375V32.7057C21.4729 32.8676 22.5271 32.8676 23.5625 32.7057V25.7178H25.8926Z" fill="white"/>
</g>
<defs>
<clipPath id="clip0_1_37304">
<rect width="20" height="20" fill="white" transform="translate(12 12.8271)"/>
</clipPath>
</defs>
</svg>
