<svg width="44" height="45" viewBox="0 0 44 45" fill="none" xmlns="http://www.w3.org/2000/svg">
<rect y="0.827148" width="44" height="44" rx="22" fill="#F8FBFF"/>
<g clip-path="url(#clip0_1_37302)">
<path d="M22 14.6279C24.6719 14.6279 24.9883 14.6396 26.0391 14.6865C27.0156 14.7295 27.543 14.8936 27.8945 15.0303C28.3594 15.21 28.6953 15.4287 29.043 15.7764C29.3945 16.1279 29.6094 16.46 29.7891 16.9248C29.9258 17.2764 30.0898 17.8076 30.1328 18.7803C30.1797 19.835 30.1914 20.1514 30.1914 22.8193C30.1914 25.4912 30.1797 25.8076 30.1328 26.8584C30.0898 27.835 29.9258 28.3623 29.7891 28.7139C29.6094 29.1787 29.3906 29.5147 29.043 29.8623C28.6914 30.2139 28.3594 30.4287 27.8945 30.6084C27.543 30.7451 27.0117 30.9092 26.0391 30.9521C24.9844 30.999 24.668 31.0107 22 31.0107C19.3281 31.0107 19.0117 30.999 17.9609 30.9521C16.9844 30.9092 16.457 30.7451 16.1055 30.6084C15.6406 30.4287 15.3047 30.21 14.957 29.8623C14.6055 29.5107 14.3906 29.1787 14.2109 28.7139C14.0742 28.3623 13.9102 27.8311 13.8672 26.8584C13.8203 25.8037 13.8086 25.4873 13.8086 22.8193C13.8086 20.1475 13.8203 19.8311 13.8672 18.7803C13.9102 17.8037 14.0742 17.2764 14.2109 16.9248C14.3906 16.46 14.6094 16.124 14.957 15.7764C15.3086 15.4248 15.6406 15.21 16.1055 15.0303C16.457 14.8936 16.9883 14.7295 17.9609 14.6865C19.0117 14.6396 19.3281 14.6279 22 14.6279ZM22 12.8271C19.2852 12.8271 18.9453 12.8389 17.8789 12.8857C16.8164 12.9326 16.0859 13.1045 15.4531 13.3506C14.793 13.6084 14.2344 13.9482 13.6797 14.5068C13.1211 15.0615 12.7813 15.6201 12.5234 16.2764C12.2773 16.9131 12.1055 17.6396 12.0586 18.7021C12.0117 19.7725 12 20.1123 12 22.8271C12 25.542 12.0117 25.8818 12.0586 26.9482C12.1055 28.0107 12.2773 28.7412 12.5234 29.374C12.7813 30.0342 13.1211 30.5928 13.6797 31.1475C14.2344 31.7021 14.793 32.0459 15.4492 32.2998C16.0859 32.5459 16.8125 32.7178 17.875 32.7646C18.9414 32.8115 19.2813 32.8232 21.9961 32.8232C24.7109 32.8232 25.0508 32.8115 26.1172 32.7646C27.1797 32.7178 27.9102 32.5459 28.543 32.2998C29.1992 32.0459 29.7578 31.7021 30.3125 31.1475C30.8672 30.5928 31.2109 30.0342 31.4648 29.3779C31.7109 28.7412 31.8828 28.0147 31.9297 26.9521C31.9766 25.8857 31.9883 25.5459 31.9883 22.8311C31.9883 20.1162 31.9766 19.7764 31.9297 18.71C31.8828 17.6475 31.7109 16.917 31.4648 16.2842C31.2188 15.6201 30.8789 15.0615 30.3203 14.5068C29.7656 13.9521 29.207 13.6084 28.5508 13.3545C27.9141 13.1084 27.1875 12.9365 26.125 12.8896C25.0547 12.8389 24.7148 12.8271 22 12.8271Z" fill="#001928"/>
<path d="M22 17.6904C19.1641 17.6904 16.8633 19.9912 16.8633 22.8271C16.8633 25.6631 19.1641 27.9639 22 27.9639C24.8359 27.9639 27.1367 25.6631 27.1367 22.8271C27.1367 19.9912 24.8359 17.6904 22 17.6904ZM22 26.1592C20.1602 26.1592 18.668 24.667 18.668 22.8271C18.668 20.9873 20.1602 19.4951 22 19.4951C23.8398 19.4951 25.332 20.9873 25.332 22.8271C25.332 24.667 23.8398 26.1592 22 26.1592Z" fill="#001928"/>
<path d="M28.5391 17.4873C28.5391 18.1514 28 18.6865 27.3398 18.6865C26.6758 18.6865 26.1406 18.1475 26.1406 17.4873C26.1406 16.8232 26.6797 16.2881 27.3398 16.2881C28 16.2881 28.5391 16.8271 28.5391 17.4873Z" fill="#001928"/>
</g>
<defs>
<clipPath id="clip0_1_37302">
<rect width="20" height="20" fill="white" transform="translate(12 12.8271)"/>
</clipPath>
</defs>
</svg>
