<svg width="44" height="45" viewBox="0 0 44 45" fill="none" xmlns="http://www.w3.org/2000/svg">
<rect y="0.827148" width="44" height="44" rx="22" fill="#F8FBFF"/>
<g clip-path="url(#clip0_1_37308)">
<path d="M30.5236 12.8271H13.4764C13.0848 12.8271 12.7093 12.9827 12.4324 13.2596C12.1555 13.5364 12 13.912 12 14.3035V31.3508C12 31.7423 12.1555 32.1178 12.4324 32.3947C12.7093 32.6716 13.0848 32.8271 13.4764 32.8271H30.5236C30.9152 32.8271 31.2907 32.6716 31.5676 32.3947C31.8445 32.1178 32 31.7423 32 31.3508V14.3035C32 13.912 31.8445 13.5364 31.5676 13.2596C31.2907 12.9827 30.9152 12.8271 30.5236 12.8271ZM17.9611 29.8646H14.9542V20.3133H17.9611V29.8646ZM16.4556 18.9896C16.1145 18.9877 15.7816 18.8848 15.4989 18.6939C15.2163 18.503 14.9965 18.2326 14.8674 17.9169C14.7383 17.6012 14.7055 17.2543 14.7734 16.92C14.8412 16.5857 15.0065 16.279 15.2485 16.0386C15.4904 15.7982 15.7982 15.6349 16.1329 15.5692C16.4676 15.5035 16.8143 15.5385 17.1291 15.6696C17.444 15.8008 17.7129 16.0223 17.9021 16.3062C18.0912 16.59 18.1919 16.9236 18.1917 17.2646C18.1949 17.493 18.1521 17.7197 18.0658 17.9312C17.9796 18.1426 17.8517 18.3346 17.6896 18.4955C17.5276 18.6565 17.3349 18.7832 17.1229 18.8681C16.9108 18.953 16.6839 18.9943 16.4556 18.9896ZM29.0444 29.873H26.0389V24.6549C26.0389 23.116 25.3847 22.641 24.5403 22.641C23.6486 22.641 22.7736 23.3133 22.7736 24.6938V29.873H19.7667V20.3202H22.6583V21.6438H22.6972C22.9875 21.0563 24.0042 20.0521 25.5556 20.0521C27.2333 20.0521 29.0458 21.048 29.0458 23.9646L29.0444 29.873Z" fill="#001928"/>
</g>
<defs>
<clipPath id="clip0_1_37308">
<rect width="20" height="20" fill="white" transform="translate(12 12.8271)"/>
</clipPath>
</defs>
</svg>
