<svg width="24" height="26" viewBox="0 0 24 26" fill="none" xmlns="http://www.w3.org/2000/svg">
<path d="M0.511252 0.327148C0.204501 0.6339 0 1.14515 0 1.75865V24.1515C0 24.765 0.204501 25.2763 0.511252 25.583L0.613503 25.6853L13.2926 13.1085V12.8017L0.511252 0.327148Z" fill="url(#paint0_linear_1_14427)"/>
<path d="M17.4872 17.2997L13.2949 13.1074V12.8007L17.4872 8.6084L17.5894 8.71065L22.5997 11.5737C24.0312 12.3917 24.0312 13.7209 22.5997 14.5389L17.4872 17.2997C17.5894 17.2997 17.4872 17.2997 17.4872 17.2997Z" fill="url(#paint1_linear_1_14427)"/>
<path d="M17.5846 17.3014L13.2901 13.0068L0.508789 25.5836C1.02004 26.0949 1.73579 26.0949 2.65605 25.6859L17.5846 17.3014Z" fill="url(#paint2_linear_1_14427)"/>
<path d="M17.5846 8.71187L2.65605 0.327335C1.73579 -0.183917 1.02004 -0.0816686 0.508789 0.429584L13.2901 13.0064L17.5846 8.71187Z" fill="url(#paint3_linear_1_14427)"/>
<defs>
<linearGradient id="paint0_linear_1_14427" x1="12.1477" y1="24.3775" x2="-4.85163" y2="7.17727" gradientUnits="userSpaceOnUse">
<stop stop-color="#00A0FF"/>
<stop offset="0.0066" stop-color="#00A1FF"/>
<stop offset="0.2601" stop-color="#00BEFF"/>
<stop offset="0.5122" stop-color="#00D2FF"/>
<stop offset="0.7604" stop-color="#00DFFF"/>
<stop offset="1" stop-color="#00E3FF"/>
</linearGradient>
<linearGradient id="paint1_linear_1_14427" x1="24.4562" y1="12.954" x2="-0.344607" y2="12.954" gradientUnits="userSpaceOnUse">
<stop stop-color="#FFE000"/>
<stop offset="0.4087" stop-color="#FFBD00"/>
<stop offset="0.7754" stop-color="#FFA500"/>
<stop offset="1" stop-color="#FF9C00"/>
</linearGradient>
<linearGradient id="paint2_linear_1_14427" x1="6.6824" y1="19.0807" x2="-16.3701" y2="-4.24398" gradientUnits="userSpaceOnUse">
<stop stop-color="#FF3A44"/>
<stop offset="1" stop-color="#C31162"/>
</linearGradient>
<linearGradient id="paint3_linear_1_14427" x1="-11.2462" y1="24.6516" x2="-0.952219" y2="14.236" gradientUnits="userSpaceOnUse">
<stop stop-color="#32A071"/>
<stop offset="0.0685" stop-color="#2DA771"/>
<stop offset="0.4762" stop-color="#15CF74"/>
<stop offset="0.8009" stop-color="#06E775"/>
<stop offset="1" stop-color="#00F076"/>
</linearGradient>
</defs>
</svg>
