<svg width="44" height="45" viewBox="0 0 44 45" fill="none" xmlns="http://www.w3.org/2000/svg">
<rect y="0.827148" width="44" height="44" rx="22" fill="#F8FBFF"/>
<g clip-path="url(#clip0_1_37310)">
<path d="M31.6017 17.9817C31.4886 17.5562 31.2657 17.1679 30.9554 16.8556C30.6451 16.5433 30.2582 16.318 29.8335 16.2022C28.2698 15.7817 22.0198 15.7817 22.0198 15.7817C22.0198 15.7817 15.7698 15.7817 14.2062 16.2022C13.7814 16.318 13.3946 16.5433 13.0842 16.8556C12.7739 17.1679 12.5511 17.5562 12.438 17.9817C12.0198 19.5522 12.0198 22.8272 12.0198 22.8272C12.0198 22.8272 12.0198 26.1022 12.438 27.6726C12.5511 28.0981 12.7739 28.4865 13.0842 28.7988C13.3946 29.1111 13.7814 29.3364 14.2062 29.4522C15.7698 29.8726 22.0198 29.8726 22.0198 29.8726C22.0198 29.8726 28.2698 29.8726 29.8335 29.4522C30.2582 29.3364 30.6451 29.1111 30.9554 28.7988C31.2657 28.4865 31.4886 28.0981 31.6017 27.6726C32.0198 26.1022 32.0198 22.8272 32.0198 22.8272C32.0198 22.8272 32.0198 19.5522 31.6017 17.9817Z" fill="#001928"/>
<path d="M19.9744 25.801V19.8533L25.2017 22.8271L19.9744 25.801Z" fill="white"/>
</g>
<defs>
<clipPath id="clip0_1_37310">
<rect width="20" height="20" fill="white" transform="translate(12 12.8271)"/>
</clipPath>
</defs>
</svg>
